<svg xmlns="http://www.w3.org/2000/svg" xmlns:xlink="http://www.w3.org/1999/xlink" version="1.1" width="256" height="256" viewBox="0 0 256 256" xml:space="preserve">

<defs>
</defs>
<g style="stroke: none; stroke-width: 0; stroke-dasharray: none; stroke-linecap: butt; stroke-linejoin: miter; stroke-miterlimit: 10; fill: none; fill-rule: nonzero; opacity: 1;" transform="translate(1.4065934065934016 1.4065934065934016) scale(2.81 2.81)" >
	<rect x="36.06" y="56.79" rx="0" ry="0" width="17.88" height="17.88" style="stroke: none; stroke-width: 1; stroke-dasharray: none; stroke-linecap: butt; stroke-linejoin: miter; stroke-miterlimit: 10; fill: rgb(243,218,73); fill-rule: nonzero; opacity: 1;" transform=" matrix(1 0 0 1 0 0) "/>
	<rect x="1" y="56.79" rx="0" ry="0" width="17.88" height="17.88" style="stroke: none; stroke-width: 1; stroke-dasharray: none; stroke-linecap: butt; stroke-linejoin: miter; stroke-miterlimit: 10; fill: rgb(148,227,104); fill-rule: nonzero; opacity: 1;" transform=" matrix(1 0 0 1 0 0) "/>
	<rect x="71.12" y="56.79" rx="0" ry="0" width="17.88" height="17.88" style="stroke: none; stroke-width: 1; stroke-dasharray: none; stroke-linecap: butt; stroke-linejoin: miter; stroke-miterlimit: 10; fill: rgb(104,153,224); fill-rule: nonzero; opacity: 1;" transform=" matrix(1 0 0 1 0 0) "/>
	<rect x="22.66" y="15.33" rx="0" ry="0" width="44.67" height="22.62" style="stroke: none; stroke-width: 1; stroke-dasharray: none; stroke-linecap: butt; stroke-linejoin: miter; stroke-miterlimit: 10; fill: rgb(255,139,71); fill-rule: nonzero; opacity: 1;" transform=" matrix(1 0 0 1 0 0) "/>
	<path d="M 53.94 75.673 H 36.06 c -0.552 0 -1 -0.447 -1 -1 v -17.88 c 0 -0.553 0.448 -1 1 -1 h 17.88 c 0.553 0 1 0.447 1 1 v 17.88 C 54.94 75.226 54.493 75.673 53.94 75.673 z M 37.06 73.673 h 15.88 v -15.88 H 37.06 V 73.673 z" style="stroke: none; stroke-width: 1; stroke-dasharray: none; stroke-linecap: butt; stroke-linejoin: miter; stroke-miterlimit: 10; fill: rgb(0,0,0); fill-rule: nonzero; opacity: 1;" transform=" matrix(1 0 0 1 0 0) " stroke-linecap="round" />
	<path d="M 18.88 75.673 H 1 c -0.552 0 -1 -0.447 -1 -1 v -17.88 c 0 -0.553 0.448 -1 1 -1 h 17.88 c 0.552 0 1 0.447 1 1 v 17.88 C 19.88 75.226 19.433 75.673 18.88 75.673 z M 2 73.673 h 15.88 v -15.88 H 2 V 73.673 z" style="stroke: none; stroke-width: 1; stroke-dasharray: none; stroke-linecap: butt; stroke-linejoin: miter; stroke-miterlimit: 10; fill: rgb(0,0,0); fill-rule: nonzero; opacity: 1;" transform=" matrix(1 0 0 1 0 0) " stroke-linecap="round" />
	<path d="M 89 75.673 H 71.12 c -0.553 0 -1 -0.447 -1 -1 v -17.88 c 0 -0.553 0.447 -1 1 -1 H 89 c 0.553 0 1 0.447 1 1 v 17.88 C 90 75.226 89.553 75.673 89 75.673 z M 72.12 73.673 H 88 v -15.88 H 72.12 V 73.673 z" style="stroke: none; stroke-width: 1; stroke-dasharray: none; stroke-linecap: butt; stroke-linejoin: miter; stroke-miterlimit: 10; fill: rgb(0,0,0); fill-rule: nonzero; opacity: 1;" transform=" matrix(1 0 0 1 0 0) " stroke-linecap="round" />
	<path d="M 67.335 38.945 h -44.67 c -0.552 0 -1 -0.448 -1 -1 V 15.327 c 0 -0.552 0.448 -1 1 -1 h 44.67 c 0.553 0 1 0.448 1 1 v 22.618 C 68.335 38.497 67.888 38.945 67.335 38.945 z M 23.665 36.945 h 42.67 V 16.327 h -42.67 V 36.945 z" style="stroke: none; stroke-width: 1; stroke-dasharray: none; stroke-linecap: butt; stroke-linejoin: miter; stroke-miterlimit: 10; fill: rgb(0,0,0); fill-rule: nonzero; opacity: 1;" transform=" matrix(1 0 0 1 0 0) " stroke-linecap="round" />
	<path d="M 45 57.793 c -0.552 0 -1 -0.447 -1 -1 V 37.945 c 0 -0.552 0.448 -1 1 -1 s 1 0.448 1 1 v 18.848 C 46 57.346 45.552 57.793 45 57.793 z" style="stroke: none; stroke-width: 1; stroke-dasharray: none; stroke-linecap: butt; stroke-linejoin: miter; stroke-miterlimit: 10; fill: rgb(0,0,0); fill-rule: nonzero; opacity: 1;" transform=" matrix(1 0 0 1 0 0) " stroke-linecap="round" />
	<path d="M 80.06 57.793 c -0.553 0 -1 -0.447 -1 -1 v -8.424 H 10.94 v 8.424 c 0 0.553 -0.448 1 -1 1 s -1 -0.447 -1 -1 v -9.424 c 0 -0.553 0.448 -1 1 -1 h 70.12 c 0.553 0 1 0.447 1 1 v 9.424 C 81.06 57.346 80.612 57.793 80.06 57.793 z" style="stroke: none; stroke-width: 1; stroke-dasharray: none; stroke-linecap: butt; stroke-linejoin: miter; stroke-miterlimit: 10; fill: rgb(0,0,0); fill-rule: nonzero; opacity: 1;" transform=" matrix(1 0 0 1 0 0) " stroke-linecap="round" />
</g>
</svg>