<svg xmlns="http://www.w3.org/2000/svg" xmlns:xlink="http://www.w3.org/1999/xlink" version="1.1" x="0px" y="0px" viewBox="0 0 595.3 716.25" style="enable-background:new 0 0 595.3 573;" xml:space="preserve"><g><path fill="SlateBlue" d="M133.6,67.7h125.1c9.9,0,17.9-8.7,17.9-19.5v-6.1c0-10.8-8-19.5-17.9-19.5h-36.3   C217.8,12,207.8,4.6,196.2,4.6c-11.6,0-21.6,7.4-26.2,18.2h-36.3c-9.9,0-17.9,8.7-17.9,19.5v6.1C115.8,59,123.8,67.7,133.6,67.7z"/><path fill="SlateBlue" d="M52.3,119.6v46c0,7.9,6.5,14.4,14.4,14.4h44.1c7.9,0,14.4-6.5,14.4-14.4V139l11.6-12.3   c4.2-4.5,4-11.5-0.5-15.7c-4-3.8-10.2-4-14.4-0.6c-2.6-3.2-6.6-5.2-11.1-5.2H66.8C58.8,105.2,52.3,111.7,52.3,119.6z M114,118.6   l-19.2,20.4l-9.6-9.7c-4.3-4.4-11.3-4.4-15.7-0.1c-4.4,4.3-4.4,11.3-0.1,15.7L86.2,162c2.3,2.3,5.5,3.6,8.7,3.6c0,0,0.1,0,0.1,0   c3.3,0,6.5-1.4,8.8-3.8l10.3-11v14.8c0,1.8-1.5,3.3-3.3,3.3H66.8c-1.8,0-3.3-1.5-3.3-3.3v-46c0-1.8,1.5-3.3,3.3-3.3h44.1   C112.3,116.3,113.5,117.3,114,118.6z"/><path fill="SlateBlue" d="M136.3,197.2c-4-3.8-10.2-4-14.4-0.6c-2.6-3.2-6.6-5.2-11.1-5.2H66.8c-7.9,0-14.4,6.5-14.4,14.4v46   c0,7.9,6.5,14.4,14.4,14.4h44.1c7.9,0,14.4-6.5,14.4-14.4v-26.6l11.6-12.3C141,208.4,140.8,201.4,136.3,197.2z M114.1,251.8   c0,1.8-1.5,3.3-3.3,3.3H66.8c-1.8,0-3.3-1.5-3.3-3.3v-46c0-1.8,1.5-3.3,3.3-3.3h44.1c1.5,0,2.7,1,3.2,2.3l-19.2,20.4l-9.6-9.7   c-4.3-4.4-11.3-4.4-15.7-0.1c-4.4,4.3-4.4,11.3-0.1,15.7l16.8,17.1c2.3,2.3,5.5,3.6,8.7,3.6c0,0,0.1,0,0.1,0c3.3,0,6.5-1.4,8.8-3.8   l10.3-11V251.8z"/><path fill="SlateBlue" d="M136.3,282.7c-4.5-4.2-11.5-4-15.7,0.5l-0.9,0.9c-2.5-2.2-5.8-3.6-9.5-3.6H66.3   c-7.9,0-14.4,6.5-14.4,14.4v46c0,7.9,6.5,14.4,14.4,14.4h44.1c7.9,0,14.4-6.5,14.4-14.4v-29.7l12.1-12.8   C141,293.9,140.8,286.9,136.3,282.7z M113.7,340.9c0,1.8-1.5,3.3-3.3,3.3H66.3c-1.8,0-3.3-1.5-3.3-3.3v-46c0-1.8,1.5-3.3,3.3-3.3   h44.1c0.7,0,1.3,0.2,1.8,0.6l-17.4,18.5l-9.6-9.7c-4.3-4.4-11.3-4.4-15.7-0.1c-4.4,4.3-4.4,11.3-0.1,15.7l16.8,17.1   c2.3,2.3,5.5,3.6,8.7,3.6c0,0,0.1,0,0.1,0c3.3,0,6.5-1.4,8.8-3.8l9.8-10.4V340.9z"/><path fill="SlateBlue" d="M110.8,363.6H66.8c-7.9,0-14.4,6.5-14.4,14.4v46c0,7.9,6.5,14.4,14.4,14.4h44.1c7.9,0,14.4-6.5,14.4-14.4   v-46C125.2,370,118.8,363.6,110.8,363.6z M114.1,423.9c0,1.8-1.5,3.3-3.3,3.3H66.8c-1.8,0-3.3-1.5-3.3-3.3v-46   c0-1.8,1.5-3.3,3.3-3.3h44.1c1.8,0,3.3,1.5,3.3,3.3V423.9z"/><path fill="SlateBlue" d="M321.7,116.2H166.4c-7.1,0-12.8,5-12.8,11.1c0,6.1,5.7,11.1,12.8,11.1h155.3c7.1,0,12.8-5,12.8-11.1   C334.5,121.2,328.7,116.2,321.7,116.2z"/><path fill="SlateBlue" d="M321.7,202.6H166.4c-7.1,0-12.8,5-12.8,11.1s5.7,11.1,12.8,11.1h155.3c7.1,0,12.8-5,12.8-11.1   S328.7,202.6,321.7,202.6z"/><path fill="SlateBlue" d="M321.7,288.1H166.4c-7.1,0-12.8,5-12.8,11.1c0,6.1,5.7,11.1,12.8,11.1h155.3c7.1,0,12.8-5,12.8-11.1   C334.5,293.1,328.7,288.1,321.7,288.1z"/><path fill="SlateBlue" d="M321.7,146.8H166.4c-7.1,0-12.8,5-12.8,11.1s5.7,11.1,12.8,11.1h155.3c7.1,0,12.8-5,12.8-11.1   S328.7,146.8,321.7,146.8z"/><path fill="SlateBlue" d="M321.7,232.8H166.4c-7.1,0-12.8,5-12.8,11.1s5.7,11.1,12.8,11.1h155.3c7.1,0,12.8-5,12.8-11.1   S328.7,232.8,321.7,232.8z"/><path fill="SlateBlue" d="M473.7,449.5c-0.9-8.6-1.8-17.3-2.7-25.9c-0.4-3.9-3.4-7.1-7.3-7.7c-8.2-1.2-16.3-2.5-24.5-3.7   c-1.3-0.2-2.4-1-2.9-2.2c-0.4-0.8-0.7-1.5-1.1-2.2c-0.6-1.2-0.6-2.6,0.1-3.7c4.1-7.2,8.1-14.3,12.2-21.5c2-3.4,1.3-7.8-1.5-10.5   c-6.2-6.1-12.5-12.1-18.7-18.2c-2.8-2.8-7.2-3.2-10.6-1.2c-7,4.3-14.1,8.6-21.1,12.9c-1.1,0.7-2.5,0.8-3.7,0.2   c-0.8-0.4-1.5-0.7-2.3-1c-1.2-0.5-2.1-1.6-2.3-2.9c-1.5-8.1-3-16.2-4.5-24.3c-0.7-3.9-4-6.8-7.9-7.1l-26-1.9   c-4-0.3-7.6,2.1-8.9,5.9c-2.6,7.8-5.3,15.6-7.9,23.4c-0.4,1.2-1.4,2.2-2.7,2.5c-0.8,0.2-1.6,0.4-2.4,0.7c-1.3,0.4-2.6,0.1-3.6-0.7   c-6.4-5.3-12.7-10.5-19.1-15.8c-3.1-2.5-7.4-2.7-10.6-0.3c-7,5.1-14.1,10.2-21.1,15.3c-3.2,2.3-4.4,6.5-3,10.2c3,7.7,6,15.4,9,23   c0.5,1.2,0.3,2.6-0.4,3.7c-0.5,0.7-0.9,1.4-1.4,2.1c-0.7,1.1-1.9,1.8-3.2,1.8c-8.2,0.1-16.5,0.1-24.7,0.2c-4,0-7.4,2.7-8.4,6.6   c-2.1,8.4-4.2,16.9-6.4,25.3c-1,3.8,0.8,7.9,4.3,9.8c7.2,4,14.5,7.9,21.7,11.9c1.1,0.6,1.9,1.8,2,3.1c0.1,0.8,0.2,1.7,0.3,2.5   c0.1,1.3-0.4,2.6-1.3,3.4c-6.3,5.3-12.6,10.7-18.8,16c-3,2.6-3.9,6.8-2.2,10.4c3.8,7.8,7.6,15.6,11.4,23.5c1.7,3.6,5.6,5.5,9.5,4.7   c8.8-1.8,17.6-3.5,26.3-5.3c1.1,1.1,2.1,2.2,3.2,3.2c0.9,0.9,1.4,2.2,1.2,3.5c-1.4,8.1-2.8,16.3-4.1,24.4c-0.7,3.9,1.4,7.8,5,9.4   c7.9,3.6,15.9,7.1,23.8,10.7c3.6,1.6,7.9,0.6,10.3-2.5c5.2-6.4,10.3-12.9,15.5-19.3c0.8-1,2.1-1.6,3.4-1.4c0.4,0,0.8,0.1,1.2,0.1   c0.4,0,0.8,0.1,1.2,0.1c1.3,0.1,2.5,0.8,3.2,1.9c4.2,7.1,8.3,14.2,12.5,21.3c2,3.4,6.1,5,9.9,4c8.4-2.4,16.7-4.8,25.1-7.1   c3.8-1.1,6.4-4.6,6.3-8.6c-0.2-8.2-0.4-16.5-0.6-24.7c0-1.3,0.6-2.5,1.7-3.3c0.7-0.5,1.3-1,2-1.5c1-0.8,2.4-1,3.6-0.6   c7.8,2.8,15.5,5.5,23.3,8.3c3.7,1.3,7.9,0,10.1-3.3c4.9-7.2,9.8-14.4,14.6-21.6c2.2-3.3,1.9-7.6-0.7-10.6   c-5.4-6.2-10.9-12.4-16.3-18.6c-0.9-1-1.2-2.3-0.8-3.6c0.2-0.8,0.4-1.6,0.6-2.4c0.3-1.3,1.2-2.3,2.4-2.8c7.7-2.9,15.5-5.7,23.2-8.6   C471.8,457.1,474.1,453.4,473.7,449.5z M410.2,451.7c-2.3,31.4-29.5,55-60.9,52.7c-31.4-2.3-55-29.5-52.7-60.9   c2.3-31.4,29.5-55,60.9-52.7C388.9,393.1,412.5,420.3,410.2,451.7z"/><path fill="SlateBlue" d="M228.5,480.9H34.3v-421h72.6c-1.4-3.6-2.2-7.5-2.2-11.7v-6.1c0-1.5,0.1-3,0.3-4.4H32.5   c-11.2,0-20.4,9.1-20.4,20.4v424.6c0,11.2,9.1,20.4,20.4,20.4h201.8l-4.4-9C227.9,489.8,227.5,485.2,228.5,480.9z"/><path fill="SlateBlue" d="M285.5,59.9h72.6v258l17.7,1.3c1.6,0.1,3.1,0.4,4.5,0.9v-262c0-11.2-9.1-20.4-20.4-20.4h-72.5   c0.2,1.4,0.3,2.9,0.3,4.4v6.1C287.7,52.4,286.9,56.3,285.5,59.9z"/><path fill="SlateBlue" d="M153.5,416.2c0,6.1,5.7,11.1,12.8,11.1h57.1l5.6-22.2h-62.7C159.3,405.2,153.5,410.1,153.5,416.2z"/><path fill="SlateBlue" d="M248.7,389.2l16.6-0.1l-5.7-14.5h-93.3c-7.1,0-12.8,5-12.8,11.1s5.7,11.1,12.8,11.1h66.9   C237,392.1,242.6,389.2,248.7,389.2z"/><path fill="SlateBlue" d="M287.3,335.1c7.3-5.3,17.3-5,24.2,0.8l5.4,4.5h4.8c1.8,0,3.4-0.3,5-0.9l3-8.8c0.8-2.4,2-4.5,3.6-6.3   c-2.1-3.7-6.5-6.2-11.5-6.2H166.4c-7.1,0-12.8,5-12.8,11.1s5.7,11.1,12.8,11.1H280L287.3,335.1z"/><path fill="SlateBlue" d="M445.6,323.7c4.4,2,8.8,4,13.1,6c0.7,0.3,1.2,1,1.3,1.7c0.1,0.5,0.2,1,0.3,1.4c0.1,0.7-0.1,1.5-0.6,2.1   c-3.4,3.4-6.9,6.8-10.3,10.1c-1.6,1.6-2,4.2-0.8,6.2c2.5,4.4,5.1,8.8,7.6,13.2c1.2,2,3.5,3,5.8,2.4c5-1.4,10.1-2.8,15.1-4.2   c0.7,0.6,1.3,1.2,2,1.7c0.6,0.5,0.9,1.2,0.8,2c-0.5,4.8-0.9,9.6-1.4,14.4c-0.2,2.3,1.1,4.5,3.3,5.3c4.8,1.7,9.5,3.5,14.3,5.2   c2.2,0.8,4.6,0,5.9-1.9c2.7-4,5.5-7.9,8.2-11.9c0.4-0.6,1.2-1,1.9-1c0.2,0,0.5,0,0.7,0s0.5,0,0.7,0c0.8,0,1.5,0.4,1.9,1   c2.7,4,5.5,7.9,8.2,11.9c1.3,1.9,3.7,2.7,5.9,1.9c4.8-1.7,9.5-3.5,14.3-5.2c2.2-0.8,3.5-3,3.3-5.3c-0.5-4.8-0.9-9.6-1.4-14.4   c-0.1-0.8,0.2-1.5,0.8-2c0.4-0.3,0.7-0.6,1.1-0.9c0.6-0.5,1.4-0.7,2.1-0.5c4.6,1.3,9.3,2.6,13.9,3.9c2.2,0.6,4.6-0.4,5.8-2.4   c2.5-4.4,5.1-8.8,7.6-13.2c1.2-2,0.8-4.5-0.8-6.2c-3.4-3.4-6.9-6.8-10.3-10.1c-0.5-0.5-0.8-1.3-0.6-2.1c0.1-0.5,0.2-1,0.3-1.4   c0.1-0.8,0.6-1.4,1.3-1.7c4.4-2,8.8-4,13.1-6c2.1-1,3.3-3.2,2.9-5.5c-0.9-5-1.8-10-2.6-15c-0.4-2.3-2.3-4-4.6-4.2   c-4.8-0.4-9.6-0.8-14.4-1.1c-0.8-0.1-1.4-0.5-1.8-1.2c-0.2-0.4-0.5-0.8-0.7-1.3c-0.4-0.7-0.4-1.5-0.1-2.2c2.1-4.3,4.1-8.7,6.2-13   c1-2.1,0.5-4.6-1.3-6.1c-3.9-3.3-7.8-6.5-11.7-9.8c-1.8-1.5-4.3-1.6-6.2-0.2c-3.9,2.8-7.8,5.6-11.8,8.4c-0.6,0.4-1.4,0.5-2.1,0.3   c-0.5-0.2-0.9-0.3-1.4-0.5c-0.7-0.3-1.3-0.8-1.5-1.6c-1.2-4.7-2.4-9.3-3.6-14c-0.6-2.2-2.6-3.8-4.9-3.8h-15.2   c-2.3,0-4.3,1.6-4.9,3.8c-1.2,4.7-2.4,9.3-3.6,14c-0.2,0.7-0.7,1.3-1.5,1.6c-0.5,0.2-0.9,0.3-1.4,0.5c-0.7,0.3-1.5,0.2-2.1-0.3   c-3.9-2.8-7.8-5.6-11.8-8.4c-1.9-1.3-4.4-1.2-6.2,0.2c-3.9,3.3-7.8,6.5-11.7,9.8c-1.8,1.5-2.3,4-1.3,6.1c2.1,4.4,4.1,8.7,6.2,13.1   c0.3,0.7,0.3,1.5-0.1,2.2c-0.2,0.4-0.5,0.8-0.7,1.3c-0.4,0.7-1.1,1.1-1.8,1.2c-4.8,0.4-9.6,0.8-14.4,1.1c-2.3,0.2-4.2,1.9-4.6,4.2   c-0.9,5-1.8,10-2.6,15C442.3,320.5,443.5,322.7,445.6,323.7z M512.9,288.9c18.4,0,33.3,14.9,33.3,33.3c0,18.4-14.9,33.3-33.3,33.3   c-18.4,0-33.3-14.9-33.3-33.3C479.6,303.8,494.5,288.9,512.9,288.9z"/><path fill="SlateBlue" d="M581,472c-0.3-1.8-1.8-3.1-3.6-3.3c-3.8-0.3-7.5-0.6-11.3-0.9c-0.6,0-1.1-0.4-1.4-0.9   c-0.2-0.3-0.4-0.7-0.6-1c-0.3-0.5-0.3-1.2-0.1-1.7c1.6-3.4,3.3-6.8,4.9-10.3c0.8-1.6,0.4-3.6-1-4.8c-3.1-2.6-6.1-5.1-9.2-7.7   c-1.4-1.2-3.4-1.2-4.9-0.2c-3.1,2.2-6.2,4.4-9.2,6.6c-0.5,0.3-1.1,0.4-1.7,0.2c-0.4-0.1-0.7-0.3-1.1-0.4c-0.6-0.2-1-0.7-1.1-1.2   c-1-3.7-1.9-7.3-2.9-11c-0.5-1.8-2-3-3.9-3h-12c-1.8,0-3.4,1.2-3.9,3c-1,3.7-1.9,7.3-2.9,11c-0.2,0.6-0.6,1-1.1,1.2   c-0.4,0.1-0.7,0.3-1.1,0.4c-0.6,0.2-1.2,0.1-1.7-0.2c-3.1-2.2-6.2-4.4-9.2-6.6c-1.5-1.1-3.5-1-4.9,0.2c-3.1,2.6-6.1,5.1-9.2,7.7   c-1.4,1.2-1.8,3.1-1,4.8c1.6,3.4,3.3,6.8,4.9,10.3c0.3,0.5,0.2,1.2-0.1,1.7c-0.2,0.3-0.4,0.7-0.6,1c-0.3,0.5-0.8,0.9-1.4,0.9   c-3.8,0.3-7.5,0.6-11.3,0.9c-1.8,0.1-3.3,1.5-3.6,3.3c-0.7,3.9-1.4,7.9-2.1,11.8c-0.3,1.8,0.6,3.6,2.3,4.3   c3.4,1.6,6.9,3.1,10.3,4.7c0.5,0.2,0.9,0.8,1,1.3c0.1,0.4,0.1,0.8,0.2,1.1c0.1,0.6-0.1,1.2-0.5,1.6c-2.7,2.7-5.4,5.3-8.1,8   c-1.3,1.3-1.6,3.3-0.7,4.8c2,3.5,4,6.9,6,10.4c0.9,1.6,2.8,2.3,4.5,1.9c4-1.1,7.9-2.2,11.9-3.3c0.5,0.5,1,0.9,1.6,1.4   c0.5,0.4,0.7,1,0.7,1.6c-0.4,3.8-0.7,7.5-1.1,11.3c-0.2,1.8,0.9,3.5,2.6,4.1c3.8,1.4,7.5,2.7,11.3,4.1c1.7,0.6,3.6,0,4.7-1.5   c2.1-3.1,4.3-6.2,6.4-9.4c0.3-0.5,0.9-0.8,1.5-0.8c0.2,0,0.4,0,0.6,0c0.2,0,0.4,0,0.6,0c0.6,0,1.2,0.3,1.5,0.8   c2.1,3.1,4.3,6.2,6.4,9.4c1,1.5,2.9,2.1,4.7,1.5c3.8-1.4,7.5-2.7,11.3-4.1c1.7-0.6,2.8-2.3,2.6-4.1c-0.4-3.8-0.7-7.5-1.1-11.3   c-0.1-0.6,0.2-1.2,0.7-1.6c0.3-0.2,0.6-0.5,0.9-0.7c0.5-0.4,1.1-0.5,1.7-0.4c3.7,1,7.3,2,11,3c1.8,0.5,3.6-0.3,4.5-1.9   c2-3.5,4-6.9,6-10.4c0.9-1.6,0.6-3.6-0.7-4.8c-2.7-2.7-5.4-5.3-8.1-8c-0.4-0.4-0.6-1-0.5-1.6c0.1-0.4,0.1-0.8,0.2-1.1   c0.1-0.6,0.5-1.1,1-1.3c3.4-1.6,6.9-3.1,10.3-4.7c1.7-0.8,2.6-2.5,2.3-4.3C582.4,479.8,581.7,475.9,581,472z M527.9,513.1   c-14.4,0-26.2-11.7-26.2-26.2s11.7-26.2,26.2-26.2s26.2,11.7,26.2,26.2S542.4,513.1,527.9,513.1z"/></g></svg>
